HIERARCHY
ROOT root
{
	OFFSET 0.000000 0.000000 0.000000
	CHANNELS 6 Xposition Yposition Zposition Zrotation Yrotation Xrotation
	JOINT lhip
	{
		OFFSET 0.058581 -0.082280 -0.017664
		CHANNELS 3 Zrotation Yrotation Xrotation
		JOINT lknee
		{
			OFFSET 0.043451 -0.386469 0.008037
			CHANNELS 3 Zrotation Yrotation Xrotation
			JOINT lankle
			{
				OFFSET -0.014790 -0.426874 -0.037428
				CHANNELS 3 Zrotation Yrotation Xrotation
				JOINT ltoe
				{
					OFFSET 0.041054 -0.060286 0.122042
					CHANNELS 3 Zrotation Yrotation Xrotation
					End Site
					{
						OFFSET 0.000000 0.000000 0.000000
					}
				}
			}
		}
	}
	JOINT rhip
	{
		OFFSET -0.060310 -0.090513 -0.013543
		CHANNELS 3 Zrotation Yrotation Xrotation
		JOINT rknee
		{
			OFFSET -0.043257 -0.383688 -0.004843
			CHANNELS 3 Zrotation Yrotation Xrotation
			JOINT rankle
			{
				OFFSET 0.019056 -0.420046 -0.034562
				CHANNELS 3 Zrotation Yrotation Xrotation
				JOINT rtoe
				{
					OFFSET -0.034840 -0.062106 0.130323
					CHANNELS 3 Zrotation Yrotation Xrotation
					End Site
					{
						OFFSET 0.000000 0.000000 0.000000
					}
				}
			}
		}
	}
	JOINT lowerback
	{
		OFFSET 0.004439 0.124404 -0.038385
		CHANNELS 3 Zrotation Yrotation Xrotation
		JOINT upperback
		{
			OFFSET 0.004488 0.137956 0.026820
			CHANNELS 3 Zrotation Yrotation Xrotation
			JOINT chest
			{
				OFFSET -0.002265 0.056032 0.002855
				CHANNELS 3 Zrotation Yrotation Xrotation
				JOINT lowerneck
				{
					OFFSET -0.013390 0.211636 -0.033468
					CHANNELS 3 Zrotation Yrotation Xrotation
					JOINT upperneck
					{
						OFFSET 0.010113 0.088937 0.050410
						CHANNELS 3 Zrotation Yrotation Xrotation
						End Site
						{
							OFFSET 0.000000 0.000000 0.000000
						}
					}
				}
				JOINT lclavicle
				{
					OFFSET 0.071702 0.114000 -0.018898
					CHANNELS 3 Zrotation Yrotation Xrotation
					JOINT lshoulder
					{
						OFFSET 0.122921 0.045205 -0.019046
						CHANNELS 3 Zrotation Yrotation Xrotation
						JOINT lelbow
						{
							OFFSET 0.255332 -0.015649 -0.022946
							CHANNELS 3 Zrotation Yrotation Xrotation
							JOINT lwrist
							{
								OFFSET 0.265709 0.012698 -0.007375
								CHANNELS 3 Zrotation Yrotation Xrotation
								End Site
								{
									OFFSET 0.000000 0.000000 0.000000
								}
							}
						}
					}
				}
				JOINT rclavicle
				{
					OFFSET -0.082954 0.112472 -0.023707
					CHANNELS 3 Zrotation Yrotation Xrotation
					JOINT rshoulder
					{
						OFFSET -0.113228 0.046853 -0.008472
						CHANNELS 3 Zrotation Yrotation Xrotation
						JOINT relbow
						{
							OFFSET -0.260127 -0.014369 -0.031269
							CHANNELS 3 Zrotation Yrotation Xrotation
							JOINT rwrist
							{
								OFFSET -0.269108 0.006794 -0.006027
								CHANNELS 3 Zrotation Yrotation Xrotation
								End Site
								{
									OFFSET 0.000000 0.000000 0.000000
								}
							}
						}
					}
				}
			}
		}
	}
}
MOTION
Frames: 15
Frame Time: 0.033333
0.567132 0.762188 0.984445 -85.765038 3.803706 86.102021 2.895655 -0.835507 4.008025 -2.852748 -15.528659 7.417202 6.415947 8.121979 -17.935916 0.000000 -0.000000 0.000000 3.180275 -0.981916 3.235071 2.968989 2.559478 9.306678 2.670927 -2.414298 -12.992652 0.000000 -0.000000 0.000000 -1.055526 1.494212 7.624814 1.438827 -2.337446 1.868130 0.621039 -1.857111 2.993022 2.179296 1.800292 11.678169 4.498756 -0.632284 1.424189 -25.938915 5.326231 4.261894 -61.338126 -5.698812 6.444890 11.380939 -25.653964 3.950845 -4.817913 1.464719 -9.152686 23.765840 -2.932364 1.514479 63.718570 1.744583 10.084467 -14.615234 26.102426 -1.907895 7.988730 -1.191301 -9.482961 
0.567191 0.761894 0.984352 -85.804319 3.852967 86.109770 2.937460 -0.806958 3.902308 -2.850588 -15.386710 7.583062 6.466737 7.997047 -18.023141 0.000000 -0.000000 0.000000 3.213657 -0.960160 3.233814 2.954260 2.472449 9.254875 2.643561 -2.305847 -12.969219 0.000000 -0.000000 0.000000 -1.009611 1.463432 7.481624 1.382362 -2.296412 1.916928 0.594885 -1.843575 3.183786 2.203631 1.880228 11.492546 4.374279 -0.751698 1.637057 -25.849618 5.333764 4.139408 -61.443764 -5.865324 6.462259 11.431571 -25.647691 4.005448 -4.999858 1.337063 -9.035431 23.792733 -2.858837 1.565644 63.830564 1.821758 10.163748 -14.842330 26.147349 -2.040829 7.813643 -1.261573 -9.685108 
0.567243 0.761553 0.984308 -85.853702 3.872476 86.106938 2.919324 -0.758158 3.873490 -2.830119 -15.365528 7.641523 6.517959 7.995953 -18.101381 0.000000 -0.000000 0.000000 3.187792 -0.977280 3.204700 2.974890 2.512026 9.295747 2.675387 -2.240748 -13.059860 0.000000 -0.000000 0.000000 -1.008397 1.465399 7.375052 1.411950 -2.304792 2.063654 0.612151 -1.813011 3.193230 2.256222 1.894309 11.539487 4.370602 -0.773768 1.634642 -25.880459 5.258148 4.070566 -61.451237 -5.872692 6.466515 11.523567 -25.607163 3.951272 -4.985499 1.409308 -8.884606 23.718196 -2.860097 1.576342 63.884943 1.879683 10.147476 -14.866877 26.221509 -2.087193 7.857589 -1.280642 -9.763721 
0.567227 0.761099 0.984267 -85.935389 3.894483 86.104275 2.929547 -0.751709 3.921461 -2.913654 -15.435633 7.563954 6.355608 8.041813 -17.968790 0.000000 -0.000000 0.000000 3.162332 -1.001341 3.180486 2.991766 2.540360 9.311477 2.659668 -2.260309 -13.009783 0.000000 -0.000000 0.000000 -0.965469 1.481209 7.341257 1.396301 -2.302227 2.035932 0.585314 -1.844500 3.213274 2.258221 1.883827 11.506986 4.385119 -0.768901 1.645737 -25.838375 5.311231 4.031160 -61.444727 -5.879996 6.445548 11.471478 -25.463675 3.922720 -4.928564 1.312737 -9.017578 23.663861 -2.912430 1.528531 63.880488 1.900327 10.185548 -14.725970 26.272335 -1.977345 7.820559 -1.303174 -9.799243 
0.567361 0.760856 0.984324 -85.914234 3.880479 86.178709 2.881346 -0.700189 3.790810 -2.865659 -15.434823 7.633336 6.536248 8.066541 -18.078000 0.000000 -0.000000 0.000000 3.184285 -1.017280 2.984977 2.905617 2.524534 9.529451 2.665651 -2.302997 -13.109764 0.000000 -0.000000 0.000000 -0.991945 1.458477 7.370102 1.398600 -2.292524 1.811990 0.588163 -1.900237 3.268838 2.284053 1.895476 11.402305 4.355015 -0.800059 1.706944 -25.805261 5.443947 3.992838 -61.430227 -5.841748 6.443882 11.409253 -25.462591 4.071008 -4.969779 1.305652 -8.953510 23.627788 -3.034215 1.455377 63.929664 1.832285 10.212861 -14.703952 26.223405 -1.880379 7.780510 -1.287959 -9.720629 
0.567150 0.760635 0.984482 -85.910669 3.888667 86.181513 2.890718 -0.693408 3.800259 -2.902720 -15.474806 7.642645 6.462126 8.005248 -18.069243 0.000000 -0.000000 0.000000 3.172984 -0.973205 3.166454 2.907593 2.542138 9.204051 2.735458 -2.286638 -13.019006 0.000000 -0.000000 0.000000 -0.964242 1.443311 7.534969 1.352516 -2.302019 1.513985 0.580785 -1.966854 3.254888 2.258986 1.912550 11.235401 4.349505 -0.806589 1.755988 -25.764823 5.570092 4.016620 -61.419603 -5.726136 6.439807 11.424223 -25.352278 4.183995 -4.822817 1.174550 -8.957345 23.636930 -3.156918 1.356828 63.907387 1.728475 10.268183 -14.607911 26.122526 -1.760991 7.713128 -1.253633 -9.760810 
0.567373 0.760355 0.984441 -85.987313 3.882694 86.261087 2.868944 -0.715761 3.717523 -2.951639 -15.443722 7.641827 6.550193 8.109398 -18.020776 0.000000 -0.000000 0.000000 3.184639 -1.028768 2.964754 2.858189 2.682567 9.381557 2.711999 -2.357547 -12.967372 0.000000 -0.000000 0.000000 -0.983675 1.433269 7.465457 1.339957 -2.290661 1.437858 0.559695 -1.988829 3.323683 2.231002 1.885063 11.205394 4.367323 -0.812002 1.760358 -25.738791 5.587062 4.023093 -61.445527 -5.670757 6.409696 11.478074 -25.078600 4.159478 -4.602738 1.265721 -9.006154 23.621884 -3.144259 1.402725 63.924210 1.761004 10.337748 -14.673313 26.018628 -1.692195 7.721831 -1.417817 -9.740562 
0.567243 0.760013 0.984448 -86.019754 3.903581 86.279779 2.853351 -0.694845 3.723053 -2.929615 -15.493134 7.607571 6.499416 8.178353 -17.968840 0.000000 -0.000000 0.000000 3.177041 -0.980328 2.992242 2.888462 2.729312 9.270705 2.740263 -2.392536 -12.997783 0.000000 -0.000000 0.000000 -1.006123 1.460982 7.522088 1.368810 -2.249393 1.314505 0.613758 -2.012080 3.254112 2.219622 1.857469 11.171086 4.397404 -0.767655 1.702398 -25.727022 5.655769 4.024394 -61.424657 -5.546312 6.387692 11.363346 -24.981809 4.236819 -4.670294 1.428663 -9.022169 23.598438 -3.206215 1.447320 63.848552 1.655145 10.285959 -14.634443 26.010615 -1.676863 7.842598 -1.568936 -9.710059 
0.567189 0.759734 0.984489 -86.005950 3.933381 86.318486 2.889278 -0.715264 3.745966 -2.937553 -15.463282 7.494595 6.537804 8.122448 -17.996654 0.000000 -0.000000 0.000000 3.185771 -0.939257 2.961385 2.883793 2.699242 9.290074 2.794773 -2.390364 -12.941842 0.000000 -0.000000 0.000000 -0.988194 1.399322 7.547015 1.368913 -2.238764 1.161702 0.639128 -2.009041 3.276301 2.300059 1.848859 11.034995 4.369064 -0.780735 1.794025 -25.858784 5.729037 4.075345 -61.300717 -5.508689 6.340476 11.350665 -24.935996 4.226034 -4.770342 1.520177 -8.738016 23.649547 -3.243058 1.457109 63.722844 1.646117 10.210592 -14.535529 25.953960 -1.770416 7.811559 -1.222927 -9.479771 
0.567063 0.759607 0.984461 -86.039381 3.999344 86.280545 2.969846 -0.685125 3.812145 -2.949327 -15.418108 7.471023 6.512540 8.139825 -18.009437 0.000000 -0.000000 0.000000 3.219892 -0.963632 3.033181 2.913290 2.641850 9.226587 2.832254 -2.409726 -12.842858 0.000000 -0.000000 0.000000 -0.973131 1.395312 7.592474 1.380568 -2.202979 1.108067 0.653116 -1.999573 3.278171 2.240876 1.858830 11.037705 4.364062 -0.752323 1.788605 -25.841115 5.706669 4.126603 -61.324895 -5.453323 6.334217 11.392864 -24.719373 4.247289 -4.770643 1.331887 -8.814072 23.673280 -3.286231 1.496800 63.731412 1.603870 10.212009 -14.565211 25.959933 -1.758899 7.596876 -1.291675 -9.576731 
0.567074 0.759431 0.984427 -86.080747 4.028333 86.213513 2.987774 -0.726671 3.927180 -2.953194 -15.422684 7.398882 6.497072 8.149666 -17.998755 0.000000 -0.000000 0.000000 3.263104 -0.948254 3.081022 2.879693 2.720981 9.274867 2.778189 -2.433256 -12.936266 0.000000 -0.000000 0.000000 -1.017812 1.435445 7.515621 1.400327 -2.197147 1.295064 0.670580 -1.955319 3.247208 2.158497 1.911693 11.158861 4.355885 -0.728625 1.672394 -25.726205 5.620384 4.275530 -61.439821 -5.483144 6.321686 11.456345 -24.696981 4.243222 -4.948785 1.490152 -8.963064 23.687045 -3.222989 1.544613 63.727470 1.585928 10.171804 -14.653792 25.921004 -1.773417 7.758361 -1.469304 -9.671720 
0.567186 0.759155 0.984509 -86.089057 4.040696 86.210583 2.999542 -0.691205 3.950332 -2.970453 -15.416028 7.359894 6.467750 8.153088 -17.960668 0.000000 -0.000000 0.000000 3.243967 -0.970000 3.080912 2.891557 2.723706 9.261172 2.818350 -2.408154 -12.902355 0.000000 -0.000000 0.000000 -1.009505 1.428383 7.572055 1.391305 -2.180678 1.247276 0.662576 -1.962240 3.266619 2.169709 1.897559 11.109952 4.349945 -0.772376 1.696514 -25.747491 5.694348 4.217791 -61.356813 -5.456874 6.312958 11.350679 -24.708099 4.283772 -4.927661 1.500742 -8.887698 23.749337 -3.281947 1.535654 63.663823 1.558073 10.181961 -14.603882 26.005075 -1.804994 7.688176 -1.400969 -9.654476 
0.567525 0.758833 0.984539 -86.218624 4.042091 86.228072 2.977740 -0.698891 3.914276 -2.998538 -15.382751 7.364574 6.432513 8.256215 -17.984539 0.000000 -0.000000 0.000000 3.169803 -0.900465 2.962603 2.977512 2.687351 9.386892 2.868764 -2.363192 -12.764975 0.000000 -0.000000 0.000000 -0.949197 1.473290 7.632630 1.353632 -2.107643 1.144078 0.610575 -1.965589 3.259307 2.151472 1.915757 11.053765 4.336304 -0.786516 1.730592 -25.732948 5.753132 4.212650 -61.252199 -5.409800 6.297875 11.219648 -24.715206 4.369993 -5.017816 1.457339 -8.951938 23.775772 -3.350124 1.552440 63.683165 1.505287 10.213253 -14.624391 26.025185 -1.748500 7.629086 -1.201943 -9.640501 
0.567556 0.758579 0.984609 -86.220074 4.035330 86.216143 2.954381 -0.639047 3.953865 -2.997342 -15.401322 7.350225 6.470321 8.238432 -18.008149 0.000000 -0.000000 0.000000 3.134090 -0.947503 3.000275 2.993013 2.735562 9.324128 2.930523 -2.381036 -12.764225 0.000000 -0.000000 0.000000 -0.974041 1.468627 7.659101 1.343208 -2.116332 1.099871 0.597956 -1.966739 3.318339 2.231544 1.909912 10.946089 4.321723 -0.818145 1.822571 -25.754136 5.820389 4.094816 -61.119375 -5.400820 6.319745 11.117770 -24.547854 4.467864 -4.914677 1.233400 -8.787830 23.834870 -3.466661 1.385802 63.645892 1.520353 10.250086 -14.504368 25.964546 -1.698468 7.591109 -1.205184 -9.570272 
0.567770 0.758597 0.984651 -86.279739 4.045806 86.226160 2.951531 -0.640618 3.917926 -3.001973 -15.345943 7.393077 6.415178 8.244934 -18.035475 0.000000 -0.000000 0.000000 3.133296 -0.898776 2.971540 3.008420 2.721566 9.320343 2.904618 -2.384209 -12.775885 0.000000 -0.000000 0.000000 -1.037428 1.503377 7.670714 1.368852 -2.114755 1.097811 0.641796 -1.984838 3.308803 2.242372 1.917122 10.946606 4.322871 -0.838605 1.811660 -25.812401 5.843246 4.104930 -61.033478 -5.397923 6.273390 11.099923 -24.602561 4.303644 -4.737642 1.200030 -8.673673 23.888613 -3.413980 1.420210 63.625283 1.532184 10.248788 -14.598653 25.982549 -1.804447 7.526208 -1.266889 -9.492575 
